<svg width="40" height="40" viewBox="0 0 40 40" fill="none" xmlns="http://www.w3.org/2000/svg">
<rect width="40" height="40" rx="20" fill="#3561FF"/>
<g clip-path="url(#clip0_402_2)">
<path d="M29.0577 12.2157C27.0309 11.1946 25.1269 10.9862 23.9966 10.9466C23.9888 10.8419 23.8984 9.86444 23.0151 9.30662C22.0864 8.72134 21.1133 9.12466 21.0324 9.16007C20.7926 8.24685 20.1283 7.69181 19.5704 7.75444C19.092 7.80794 18.756 8.31082 18.6795 8.42554C18.4046 8.83568 18.3798 9.25257 18.3803 9.43112C18.1823 9.27246 17.843 9.0407 17.3694 8.90634C17.0505 8.81581 16.4328 8.64056 15.9665 8.90435C15.4161 9.21779 15.1726 10.0932 15.4108 11.0387C14.9247 10.6557 14.3555 10.7525 14.182 11.03C14.0632 11.2205 14.1176 11.518 14.2796 11.7706C13.1847 11.9305 11.6403 12.3071 10.075 13.2817C6.03119 15.7991 3.25278 21.441 5.08551 23.9187C5.94077 25.0753 7.52911 25.5301 9.44724 25.3439C9.65535 26.3154 10.1449 27.9003 11.423 29.3181C13.8772 32.0384 17.4342 32.1381 19.4071 32.1943C22.5429 32.2834 26.8711 31.4268 28.8672 28.8878C30.4789 26.8384 30.5921 24.7103 30.5921 24.7103C30.605 24.4569 30.6014 24.2459 30.5945 24.0993C30.9051 24.2098 32.4131 24.7132 33.7652 23.9266C34.932 23.248 35.2886 22.0105 35.3683 21.739C36.2804 18.5816 32.9232 14.1619 29.0577 12.2157Z" fill="white"/>
<path d="M17.598 21.0468C17.4314 21.6589 16.8066 22.0452 16.2024 21.9102C15.5983 21.7752 15.2422 21.1688 15.4087 20.5578C15.5752 19.9468 16.2 19.5593 16.8042 19.6943C17.4084 19.8294 17.7645 20.4358 17.598 21.0468Z" fill="#19100B"/>
<path d="M16.3819 20.575C16.4921 20.5807 16.586 20.4959 16.5916 20.3856C16.5972 20.2754 16.5124 20.1815 16.4022 20.1759C16.292 20.1703 16.1981 20.2551 16.1925 20.3653C16.1869 20.4755 16.2717 20.5694 16.3819 20.575Z" fill="white"/>
<path d="M16.7205 20.772C16.7865 20.7754 16.8427 20.7246 16.8461 20.6586C16.8494 20.5926 16.7987 20.5364 16.7327 20.533C16.6667 20.5296 16.6104 20.5804 16.6071 20.6464C16.6037 20.7124 16.6545 20.7687 16.7205 20.772Z" fill="#828282"/>
<path d="M22.0556 20.8473C22.1591 21.4732 22.7414 21.9211 23.3562 21.8482C23.9709 21.7752 24.3868 21.2081 24.2833 20.5834C24.1797 19.9587 23.5975 19.5097 22.9828 19.5826C22.368 19.6555 21.9521 20.2226 22.0556 20.8473Z" fill="#19100B"/>
<path d="M22.8072 20.5346C22.9174 20.5402 23.0113 20.4554 23.0169 20.3452C23.0225 20.2349 22.9377 20.141 22.8275 20.1354C22.7173 20.1298 22.6234 20.2146 22.6178 20.3248C22.6121 20.4351 22.6969 20.529 22.8072 20.5346Z" fill="white"/>
<path d="M23.1447 20.7303C23.2107 20.7337 23.2669 20.6829 23.2703 20.6169C23.2736 20.5509 23.2229 20.4947 23.1569 20.4913C23.0909 20.4879 23.0346 20.5387 23.0313 20.6047C23.0279 20.6707 23.0787 20.7269 23.1447 20.7303Z" fill="#828282"/>
<path fill-rule="evenodd" clip-rule="evenodd" d="M16.2479 17.6248C16.2589 17.5597 16.3206 17.5157 16.3858 17.5268C16.5776 17.5591 16.8457 17.6268 17.136 17.7774C17.4998 17.9657 17.744 18.2031 17.8865 18.3662C17.93 18.4159 17.9249 18.4915 17.8752 18.535C17.8254 18.5785 17.7498 18.5734 17.7063 18.5236C17.5771 18.3758 17.3556 18.1605 17.026 17.9899L17.0259 17.9899C16.7629 17.8535 16.52 17.7921 16.3459 17.7627C16.2808 17.7517 16.2369 17.69 16.2479 17.6248Z" fill="#19100B"/>
<path fill-rule="evenodd" clip-rule="evenodd" d="M23.4457 17.6285C23.45 17.6945 23.4001 17.7514 23.3341 17.7558C23.158 17.7673 22.9101 17.8037 22.6346 17.9126L22.6345 17.9127C22.2892 18.0489 22.047 18.2405 21.9035 18.3745C21.8551 18.4195 21.7794 18.4169 21.7343 18.3686C21.6892 18.3203 21.6919 18.2446 21.7402 18.1995C21.8985 18.0517 22.1657 17.8403 22.5467 17.69C22.8508 17.5698 23.1243 17.5297 23.3185 17.5169C23.3844 17.5126 23.4414 17.5626 23.4457 17.6285Z" fill="#19100B"/>
<path fill-rule="evenodd" clip-rule="evenodd" d="M22.8429 22.8001C22.8899 22.8465 22.8905 22.9223 22.8441 22.9693C22.7571 23.0575 22.1121 23.6832 21.1605 23.5837C20.5805 23.5231 20.1826 23.2227 19.995 23.0514C19.8 23.2263 19.3957 23.527 18.8032 23.6136C18.011 23.729 17.4221 23.3827 17.2668 23.2852C17.2108 23.25 17.1939 23.1762 17.2291 23.1202C17.2642 23.0642 17.3381 23.0473 17.3941 23.0825C17.5336 23.1701 18.0616 23.4798 18.7686 23.3768C19.3939 23.2854 19.786 22.9262 19.9114 22.8012C19.934 22.7786 19.9647 22.766 19.9967 22.7662C20.0286 22.7664 20.0591 22.7794 20.0815 22.8023C20.1947 22.918 20.5778 23.2822 21.1854 23.3457C22.0214 23.4331 22.5964 22.8796 22.6737 22.8013C22.7201 22.7542 22.7958 22.7537 22.8429 22.8001Z" fill="#19100B"/>
<path d="M19.871 21.3495C19.9462 21.3533 20.0104 21.2954 20.0142 21.2202C20.018 21.1449 19.9601 21.0808 19.8849 21.077C19.8097 21.0732 19.7455 21.1311 19.7417 21.2063C19.7379 21.2815 19.7958 21.3456 19.871 21.3495Z" fill="#19100B"/>
</g>
<defs>
<clipPath id="clip0_402_2">
<rect width="30.9164" height="24.4405" fill="white" transform="translate(5.26379 7.01584) rotate(2.91677)"/>
</clipPath>
</defs>
</svg>
