<svg width="13" height="12" viewBox="0 0 13 12" fill="none" xmlns="http://www.w3.org/2000/svg">
<path d="M11.844 4.45147C11.5507 3.40854 10.9147 2.66195 10.108 2.11044C8.49067 1.00406 6.74216 0.775221 4.91786 1.19982C3.7289 1.47726 2.66054 2.04901 1.84791 3.10882C1.02276 4.18416 0.761764 5.40665 1.23432 6.77157C1.4617 7.42838 1.84462 7.96098 2.3231 8.40381C2.42657 8.49966 2.44964 8.57257 2.38308 8.7123C2.27565 8.93776 2.19063 9.17673 2.09704 9.41029C1.89009 9.92804 1.6838 10.4458 1.46236 11C1.53683 10.9669 1.57703 10.9507 1.61592 10.9311C2.44503 10.5072 3.27282 10.0799 4.10457 9.66208C4.18431 9.62225 4.29504 9.60942 4.37742 9.63643C5.55254 10.0239 6.74216 10.0853 7.94035 9.82071C9.17149 9.54867 10.2814 8.98771 11.1342 7.90226C11.9172 6.9059 12.2105 5.75294 11.844 4.45147Z" stroke="#3561FF" stroke-linecap="round" stroke-linejoin="round"/>
</svg>
