<svg width="57" height="45" viewBox="0 0 57 45" fill="none" xmlns="http://www.w3.org/2000/svg">
<g clip-path="url(#clip0_245_842)">
<path d="M43.8757 7.66006C40.093 5.98999 36.609 5.78723 34.5487 5.81993C34.5247 5.63025 34.2696 3.85989 32.6104 2.92675C30.8662 1.94782 29.1329 2.77195 28.989 2.8439C28.468 1.20435 27.2078 0.255947 26.1983 0.421645C25.3328 0.563361 24.7681 1.50959 24.6394 1.72543C24.1772 2.49724 24.1707 3.25814 24.1881 3.583C23.8131 3.31265 23.1743 2.92239 22.3 2.7218C21.7114 2.58663 20.5711 2.325 19.747 2.84826C18.7746 3.46963 18.4127 5.08519 18.9337 6.7836C18.0137 6.13171 16.9868 6.36063 16.6968 6.88171C16.4984 7.23927 16.6249 7.77561 16.9432 8.22038C14.9657 8.61283 12.1902 9.44132 9.43223 11.3599C2.30719 16.3156 -2.22554 26.8397 1.33916 31.1784C3.00268 33.2038 5.93511 33.884 9.40825 33.3673C9.877 35.1159 10.9148 37.9546 13.3719 40.4161C18.09 45.1385 24.5719 44.9902 28.1671 44.9095C33.8815 44.7809 41.6781 42.8209 45.0749 38.0156C47.8176 34.137 47.8263 30.2539 47.8263 30.2539C47.8263 29.7917 47.8002 29.408 47.774 29.142C48.3496 29.3143 51.1403 30.0904 53.5277 28.5337C55.588 27.1907 56.1222 24.9058 56.2421 24.4043C57.6091 18.5744 51.0902 10.8432 43.8757 7.66006Z" fill="white"/>
<path d="M24.1261 24.7939C23.8797 25.9233 22.7787 26.6842 21.6668 26.4945C20.5548 26.3048 19.8506 25.2343 20.097 24.1071C20.3434 22.9799 21.4444 22.2168 22.5563 22.4065C23.6682 22.5962 24.3725 23.6667 24.1261 24.7939Z" fill="#19100B"/>
<path d="M21.585 24.0469C21.7861 24.0469 21.9492 23.8839 21.9492 23.6828C21.9492 23.4818 21.7861 23.3187 21.585 23.3187C21.384 23.3187 21.2209 23.4818 21.2209 23.6828C21.2209 23.8839 21.384 24.0469 21.585 24.0469Z" fill="white"/>
<path d="M22.2195 24.374C22.3399 24.374 22.4375 24.2764 22.4375 24.156C22.4375 24.0355 22.3399 23.9379 22.2195 23.9379C22.0991 23.9379 22.0015 24.0355 22.0015 24.156C22.0015 24.2764 22.0991 24.374 22.2195 24.374Z" fill="#828282"/>
<path d="M31.9346 24.0164C32.181 25.1458 33.282 25.9067 34.394 25.717C35.5059 25.5273 36.2101 24.4568 35.9637 23.3296C35.7174 22.2024 34.6163 21.4394 33.5044 21.629C32.3925 21.8187 31.6883 22.8892 31.9346 24.0164Z" fill="#19100B"/>
<path d="M33.2734 23.3776C33.4745 23.3776 33.6375 23.2146 33.6375 23.0135C33.6375 22.8124 33.4745 22.6494 33.2734 22.6494C33.0723 22.6494 32.9093 22.8124 32.9093 23.0135C32.9093 23.2146 33.0723 23.3776 33.2734 23.3776Z" fill="white"/>
<path d="M33.9056 23.7025C34.0261 23.7025 34.1237 23.6048 34.1237 23.4844C34.1237 23.364 34.0261 23.2664 33.9056 23.2664C33.7852 23.2664 33.6876 23.364 33.6876 23.4844C33.6876 23.6048 33.7852 23.7025 33.9056 23.7025Z" fill="#828282"/>
<path fill-rule="evenodd" clip-rule="evenodd" d="M21.0677 18.6909C21.0816 18.5713 21.1899 18.4857 21.3095 18.4997C21.6616 18.5408 22.1556 18.6392 22.6979 18.8863C23.3773 19.1951 23.8438 19.6044 24.1182 19.888C24.202 19.9746 24.1997 20.1126 24.1132 20.1963C24.0266 20.2801 23.8886 20.2778 23.8049 20.1913C23.5561 19.9342 23.1331 19.563 22.5174 19.2832L22.5172 19.2831C22.0261 19.0593 21.5783 18.9701 21.2589 18.9328C21.1393 18.9188 21.0537 18.8105 21.0677 18.6909Z" fill="#19100B"/>
<path fill-rule="evenodd" clip-rule="evenodd" d="M34.1657 18.0303C34.1797 18.1499 34.0941 18.2582 33.9745 18.2722C33.6551 18.3095 33.2073 18.3987 32.7162 18.6225L32.716 18.6226C32.1003 18.9024 31.6773 19.2736 31.4285 19.5307C31.3448 19.6172 31.2068 19.6194 31.1202 19.5357C31.0337 19.452 31.0314 19.3139 31.1152 19.2274C31.3897 18.9438 31.8562 18.5344 32.5356 18.2256C33.0778 17.9785 33.5718 17.8802 33.9239 17.8391C34.0435 17.8251 34.1518 17.9107 34.1657 18.0303Z" fill="#19100B"/>
<path fill-rule="evenodd" clip-rule="evenodd" d="M33.5482 27.4968C33.6382 27.5769 33.6462 27.7147 33.5661 27.8046C33.416 27.9732 32.3004 29.1715 30.5595 29.0787C29.4985 29.0222 28.7465 28.5126 28.3893 28.2182C28.0507 28.5546 27.3429 29.1392 26.2727 29.3517C24.8419 29.6351 23.7382 29.0595 23.4465 28.8965C23.3414 28.8377 23.3038 28.7049 23.3626 28.5998C23.4214 28.4947 23.5542 28.4571 23.6593 28.5159C23.9214 28.6624 24.9108 29.1769 26.1879 28.924C27.3172 28.6997 27.9975 28.0098 28.214 27.7706C28.253 27.7274 28.3077 27.7017 28.3659 27.6991C28.424 27.6965 28.4808 27.7173 28.5235 27.7568C28.7402 27.9569 29.4712 28.5841 30.5827 28.6432C32.1122 28.7248 33.1071 27.6644 33.2404 27.5147C33.3205 27.4247 33.4583 27.4167 33.5482 27.4968Z" fill="#19100B"/>
<path d="M28.0059 25.1327C28.1431 25.1327 28.2544 25.0214 28.2544 24.8842C28.2544 24.7469 28.1431 24.6356 28.0059 24.6356C27.8686 24.6356 27.7573 24.7469 27.7573 24.8842C27.7573 25.0214 27.8686 25.1327 28.0059 25.1327Z" fill="#19100B"/>
</g>
<defs>
<clipPath id="clip0_245_842">
<rect width="56.331" height="44.5315" fill="white" transform="translate(0.0965576 0.404358)"/>
</clipPath>
</defs>
</svg>
