<svg width="125" height="75" viewBox="0 0 125 75" fill="none" xmlns="http://www.w3.org/2000/svg">
<path d="M38.4542 31.1767L36.1875 20.7377C32.3417 21.836 28.4293 22.6606 23.2782 22.6606C16.4814 22.6606 14.0076 21.5623 14.0076 18.2674C14.0076 16.2077 14.762 14.2848 16.0007 12.6356H35.7068V1.37549H0V12.6356H2.95451C1.44217 14.6287 0.277205 18.1306 0.277205 21.4255C0.277205 30.489 7.83191 33.647 22.8676 33.647C28.3626 33.647 34.8857 32.5487 38.4542 31.1767Z" fill="white"/>
<path d="M40.514 35.7769H18.8148C8.44597 35.7769 3.02118 40.1034 3.02118 48.3424C3.02118 56.5813 8.44597 60.9078 18.8148 60.9078H40.514C50.8828 60.9078 56.3076 56.5813 56.3076 48.3424C56.3076 40.1034 50.8828 35.7769 40.514 35.7769ZM39.0718 50.1951H20.257C17.9902 50.1951 16.7551 49.5775 16.7551 48.2055C16.7551 46.8336 17.9902 46.216 20.257 46.216H39.0718C41.3386 46.216 42.5737 46.8336 42.5737 48.2055C42.5737 49.5775 41.3386 50.1951 39.0718 50.1951Z" fill="white"/>
<path d="M79.5647 57.834V50.546H65.8308V60.2095C65.8308 69.4134 72.5609 74.2452 92.5407 74.2452C102.085 74.2452 111.766 73.0171 118.566 71.6381V58.9814C111.426 60.6692 103.527 61.5885 92.5407 61.5885C81.5543 61.5885 79.5612 60.3604 79.5612 57.8305L79.5647 57.834Z" fill="white"/>
<path d="M118.226 18.9447V6.21078H104.492V52.0057H118.226V31.8329H124.405V18.9447H118.226Z" fill="white"/>
<path d="M60.3394 35.3594V49.167C69.817 48.7073 77.0243 44.9493 81.421 39.2718C85.4036 44.0264 90.4178 47.0967 97.2848 48.8582L102.503 37.1981C96.0462 35.9699 88.702 31.675 86.5019 26.6116C86.5721 25.6151 86.6387 24.6186 86.6387 23.5449V21.5518H97.969V10.046H86.6387V4.29141H72.9048V10.046C67.259 10.039 61.6096 10.032 55.9638 10.025V0H42.2299V33.9909H55.9638V21.5623C61.6096 21.5623 67.259 21.5553 72.9048 21.5518V25.387C72.9048 31.5241 67.273 34.5909 60.3394 35.3594Z" fill="white"/>
</svg>
