<svg width="21" height="15" viewBox="0 0 21 15" fill="none" xmlns="http://www.w3.org/2000/svg">
<g clip-path="url(#clip0_1_26)">
<path d="M10.4724 14.9979C7.626 14.9979 4.7805 14.9989 1.93408 14.9979C0.616025 14.9959 0.000934787 14.3257 0 12.8956C0 9.2857 0 5.67679 0 2.06687C0.000934787 0.683171 0.613221 0.0170196 1.88079 0.0170196C7.61104 0.0160118 13.3422 0.0341521 19.0725 -0.000112918C20.1091 -0.00615968 21.015 0.67914 20.9944 2.00338C20.9346 5.72718 20.9944 9.454 21 13.1788C21.0019 14.2803 20.3344 14.9948 19.3015 14.9969C16.3588 15.0019 13.4151 14.9989 10.4724 14.9989V14.9979ZM19.8549 2.47402C19.7315 2.55162 19.6623 2.58185 19.6081 2.63124C18.3041 3.8426 17.0019 5.05599 15.6998 6.26937C14.4004 7.47973 13.0973 8.68606 11.8045 9.90448C11.0015 10.6623 10.106 10.7016 9.28337 9.9458C7.22404 8.05317 5.17592 6.1444 3.12219 4.24371C2.5043 3.67128 1.8836 3.10288 1.2012 2.47402C1.18718 2.71388 1.17316 2.84287 1.17316 2.97187C1.17222 6.29658 1.17222 9.62029 1.17316 12.945C1.17316 13.6202 1.26944 13.721 1.91071 13.721C7.62319 13.721 13.3366 13.721 19.0491 13.72C19.7736 13.72 19.8642 13.6162 19.867 12.814C19.8801 9.52555 19.8941 6.23712 19.9054 2.9497C19.9054 2.80962 19.8764 2.66953 19.854 2.47301L19.8549 2.47402ZM19.2015 1.43398C19.1762 1.39165 19.151 1.34932 19.1258 1.307H1.81162C1.97895 1.49142 2.08645 1.62949 2.21171 1.74539C4.79359 4.14192 7.37828 6.53442 9.96016 8.93095C10.3518 9.29477 10.6341 9.31895 11.0342 8.95817C11.5942 8.45326 12.1382 7.92719 12.6925 7.41523C14.4537 5.79168 16.2158 4.17014 17.9778 2.5486C18.3835 2.17471 18.793 1.80585 19.2005 1.43398H19.2015Z" fill="black"/>
</g>
<defs>
<clipPath id="clip0_1_26">
<rect width="21" height="15" fill="white"/>
</clipPath>
</defs>
</svg>
