<svg width="32" height="43" viewBox="0 0 32 43" fill="none" xmlns="http://www.w3.org/2000/svg">
<path d="M28.8263 35.7123V36.5123H25.811V37.9276H28.5098V38.7012H25.811V40.3363C27.1121 40.3319 28.1054 40.2836 29.2483 40.099L29.345 40.8902C28.0922 41.088 26.9758 41.1275 25.5121 41.1275H24.844V35.7123H28.8263ZM30.0394 42.9736V35.0266H31.024V42.9736H30.0394Z" fill="#3561FF"/>
<path d="M23.1451 35.0266V42.9736H22.1781V35.0266H23.1451ZM16.9739 40.9781V35.8002H17.9409V40.1429C19.0529 40.1254 20.2397 40.0287 21.466 39.7825L21.5891 40.6001C20.1914 40.8902 18.8947 40.9825 17.6596 40.9781H16.9739Z" fill="#3561FF"/>
<path d="M15.8993 39.51V40.3012H14.1938V43H13.218V40.3012H11.3631V43H10.3785V40.3012H8.63794V39.51H15.8993ZM9.52582 38.5869V35.431H15.0114V38.5869H9.52582ZM10.484 37.8046H14.0356V36.2046H10.484V37.8046Z" fill="#3561FF"/>
<path d="M4.83827 35.809C4.83388 38.2045 4.12181 40.2704 1.27795 41.7341L0.741699 40.9869C2.06034 40.3056 2.88229 39.5144 3.35261 38.5694L0.917518 38.7979L0.776863 37.9628L3.65589 37.787C3.76578 37.4134 3.83171 37.0178 3.86248 36.6002H1.19004V35.809H4.83827ZM4.82069 38.9298V38.1298H6.45581V35.0266H7.4316V42.9736H6.45581V38.9298H4.82069Z" fill="#3561FF"/>
<path d="M26.147 26.1874C26.0388 26.1874 25.9307 26.1626 25.832 26.1123C25.7914 26.0918 25.7351 26.0687 25.6754 26.0448C25.479 25.9654 25.2342 25.8663 25.0282 25.6537C24.5065 25.1166 23.9822 24.5659 23.4743 24.0322C22.8158 23.3397 22.1349 22.6242 21.454 21.9351C21.3787 21.8591 21.2005 21.7805 21.101 21.7797C19.701 21.76 18.276 21.7609 16.8977 21.7617C16.1414 21.7617 15.3852 21.7626 14.6299 21.76C12.5386 21.7532 11.2373 20.4536 11.2356 18.3693C11.233 15.8589 11.233 13.3134 11.2356 10.8039C11.2373 8.6598 12.5395 7.37812 14.719 7.37556C16.6312 7.373 18.5433 7.373 20.4564 7.37385C21.5016 7.37385 22.5459 7.37385 23.5911 7.37385C24.0203 7.37385 24.4494 7.37129 24.8786 7.36958C25.7594 7.36531 26.6713 7.36019 27.5703 7.37556C29.5335 7.40715 30.8573 8.71444 30.8651 10.6297C30.8772 13.4782 30.8772 16.0681 30.8651 18.546C30.8565 20.393 29.5396 21.7139 27.6629 21.76C27.4656 21.7643 27.2709 21.7652 27.0702 21.7643C27.0702 21.8676 27.0702 21.9701 27.0702 22.0717C27.0719 23.0272 27.0745 23.9306 27.0581 24.8468V24.8494C27.0538 25.1371 26.9499 25.3745 26.8669 25.5649C26.8409 25.6247 26.8167 25.6802 26.8011 25.7254C26.7362 25.9133 26.5917 26.0636 26.4057 26.1379C26.3226 26.1712 26.2352 26.1874 26.147 26.1874Z" fill="#3561FF"/>
<path d="M7.68382 17.3948C7.09643 17.3948 6.5858 17.4055 6.07696 17.393C4.18978 17.3466 2.88553 16.045 2.87571 14.148C2.86054 10.7727 2.86232 7.39739 2.87571 4.02119C2.88375 2.0617 4.1871 0.75925 6.18676 0.72622C7.86147 0.698546 9.53707 0.724435 11.2127 0.724435C14.9576 0.724435 18.7025 0.720864 22.4482 0.72622C24.7166 0.728898 25.9825 1.99029 25.9842 4.24079C25.9869 7.46881 25.9878 10.6959 25.9842 13.9239C25.9816 16.0959 24.713 17.3841 22.5581 17.3912C19.8237 17.4001 17.0885 17.3778 14.3541 17.4171C13.9926 17.4225 13.5444 17.6215 13.29 17.8804C11.7581 19.448 10.278 21.0665 8.75774 22.6474C8.56313 22.8492 8.23908 22.9251 7.97573 23.0599C7.87753 22.776 7.70167 22.493 7.69631 22.2082C7.66864 20.6371 7.68382 19.0659 7.68382 17.3948Z" fill="#3561FF"/>
<path d="M7.97568 23.7758C7.88551 23.7758 7.79446 23.7589 7.70876 23.7241C7.51683 23.6473 7.36775 23.4902 7.3008 23.2947C7.27848 23.2313 7.24634 23.1563 7.21242 23.0777C7.11244 22.8465 6.98835 22.56 6.9821 22.2234C6.96156 21.0593 6.96425 19.914 6.96693 18.7008C6.96693 18.5053 6.96782 18.3089 6.96782 18.1116C6.65716 18.1134 6.35899 18.1134 6.05904 18.1063C3.77551 18.05 2.17222 16.4235 2.16061 14.1516C2.14633 10.9557 2.14633 7.64111 2.16061 4.01852C2.17043 1.66089 3.78355 0.0513426 6.17421 0.0129563C7.31062 -0.00579047 8.4631 -0.000434268 9.57809 0.00581466C11.1957 0.013849 12.8141 0.0111709 14.4326 0.0102782C17.0598 0.0102782 19.7763 0.00849278 22.4491 0.0129563C25.1076 0.0165271 26.6957 1.59661 26.6984 4.24169C26.7019 8.00444 26.7019 11.0816 26.6984 13.9266C26.6948 16.4967 25.1093 18.0982 22.5607 18.1072C21.6287 18.1098 20.6967 18.1098 19.7638 18.1089C17.9936 18.1089 16.1618 18.1072 14.3639 18.1331C14.1943 18.1357 13.9247 18.2545 13.7997 18.383C12.9347 19.2686 12.0678 20.1889 11.2305 21.079C10.5913 21.7574 9.9307 22.46 9.27278 23.1447C9.03532 23.3911 8.74429 23.5098 8.5113 23.6062C8.43274 23.6384 8.35865 23.6687 8.30152 23.6982C8.19975 23.7499 8.08816 23.7767 7.97657 23.7767L7.97568 23.7758ZM7.68377 16.6806C8.07835 16.6806 8.39793 17.0002 8.39793 17.3948C8.39793 17.8385 8.39704 18.2741 8.39615 18.7044C8.39347 19.8354 8.39079 20.9067 8.40686 21.9833C9.00497 21.3593 9.60665 20.7201 10.1905 20.0997C11.0332 19.2052 11.9036 18.2795 12.7793 17.3832C13.1694 16.985 13.7979 16.7128 14.3433 16.7047C16.1528 16.6788 17.9891 16.6797 19.7647 16.6806C20.6949 16.6806 21.6251 16.6815 22.5553 16.6788C24.3032 16.6726 25.2674 15.6951 25.27 13.9248C25.2736 11.0807 25.2736 8.00444 25.27 4.24259C25.2682 2.38576 24.3193 1.44396 22.4473 1.44128C19.7754 1.43771 17.0598 1.43771 14.4335 1.4386C12.8132 1.4386 11.1921 1.44217 9.57183 1.43325C8.46488 1.42789 7.32044 1.42164 6.19831 1.44039C4.59502 1.46628 3.59607 2.45629 3.58982 4.02387C3.57554 7.642 3.57554 10.9521 3.58982 14.1445C3.59786 15.646 4.58073 16.6413 6.09475 16.6779C6.42773 16.686 6.76874 16.6842 7.13029 16.6815C7.30883 16.6806 7.49184 16.6797 7.68377 16.6797V16.6806Z" fill="white"/>
<path d="M9.34012 10.4847C10.0243 10.4921 10.6054 9.92882 10.6219 9.24141C10.6384 8.55071 10.0919 7.96937 9.40194 7.94388C8.68726 7.91757 8.07892 8.50219 8.08057 9.21345C8.08222 9.88853 8.66501 10.4773 9.34012 10.4838V10.4847Z" fill="white"/>
<path d="M20.789 9.19928C20.789 8.50533 20.2311 7.95049 19.5257 7.94308C18.8278 7.9365 18.2608 8.48722 18.2475 9.18529C18.2351 9.88089 18.7881 10.467 19.4744 10.4843C20.1938 10.5032 20.789 9.92123 20.789 9.19846V9.19928Z" fill="white"/>
<path d="M14.4322 7.94385C13.7334 7.94549 13.1713 8.50019 13.1639 9.19602C13.1564 9.90991 13.7599 10.5032 14.4745 10.4843C15.1609 10.4663 15.7113 9.88776 15.7055 9.18864C15.698 8.49526 15.1327 7.94139 14.433 7.94303L14.4322 7.94385Z" fill="white"/>
</svg>
