<svg width="35" height="43" viewBox="0 0 35 43" fill="none" xmlns="http://www.w3.org/2000/svg">
<path d="M17.5906 14.7304C18.0312 14.7351 18.4054 14.3724 18.416 13.9298C18.4266 13.485 18.0747 13.1107 17.6304 13.0942C17.1702 13.0773 16.7785 13.4538 16.7795 13.9118C16.7806 14.3465 17.1559 14.7261 17.5906 14.7304Z" fill="#131313"/>
<path fill-rule="evenodd" clip-rule="evenodd" d="M18.4164 13.908C18.4164 13.9079 18.4164 13.908 18.4164 13.908L17.6005 13.9098L17.5996 13.9098L17.5987 13.9099L17.6005 13.9098L17.5701 14.7299C17.5701 14.7299 17.5702 14.7299 17.5701 14.7299L17.6005 13.9098L18.4164 13.908ZM16.7799 13.8907L17.5838 13.9099L17.5987 13.9099L16.7799 13.8907C16.7799 13.8907 16.7799 13.8908 16.7799 13.8907Z" fill="#131313"/>
<path d="M29.0431 35V42.9558H28.0585V35H29.0431ZM22.6873 38.3845C22.6829 36.6703 23.5576 35.5802 24.7619 35.5802C25.9531 35.5802 26.8322 36.6703 26.8366 38.3845C26.8322 40.1119 25.9531 41.1976 24.7619 41.1976C23.5576 41.1976 22.6829 40.1119 22.6873 38.3845ZM23.6279 38.3845C23.6279 39.6065 24.0894 40.3141 24.7619 40.3185C25.43 40.3141 25.8872 39.6065 25.8872 38.3845C25.8872 37.1714 25.43 36.4593 24.7619 36.4593C24.0894 36.4593 23.6279 37.1714 23.6279 38.3845Z" fill="#131313"/>
<path d="M17.4194 36.8461C17.415 37.7779 18.0612 38.6922 19.3183 39.0614L18.826 39.8438C17.9337 39.5713 17.2964 39.0043 16.9447 38.2834C16.5887 39.0614 15.9382 39.6724 15.0195 39.9757L14.5272 39.2021C15.7799 38.8153 16.4436 37.8527 16.4436 36.8461V36.7758H14.7822V36.0022H16.4436V35.0527H17.4282V36.0022H19.0809V36.7758H17.4194V36.8461ZM15.7404 42.7888V40.3625H16.7162V41.9976H21.1468V42.7888H15.7404ZM19.8545 40.8811V35H20.8303V37.3911H21.938V38.1999H20.8303V40.8811H19.8545Z" fill="#131313"/>
<path d="M12.969 35V36.9516H14.0679V37.7516H12.969V39.6416H11.9845V35H12.969ZM7 39.1405V35.5626H10.5603V36.3538H7.967V38.3493C9.48783 38.345 10.3362 38.2966 11.2724 38.1032L11.3691 38.8856C10.3406 39.1054 9.40432 39.1405 7.64174 39.1405H7ZM7.68569 41.3558C7.68569 40.3713 8.73181 39.7911 10.3757 39.7911C12.0064 39.7911 13.035 40.3713 13.0394 41.3558C13.035 42.358 12.0064 42.9382 10.3757 42.9382C8.73181 42.9382 7.68569 42.358 7.68569 41.3558ZM8.6527 41.3558C8.6483 41.8701 9.28564 42.1558 10.3757 42.1558C11.4438 42.1558 12.0856 41.8701 12.09 41.3558C12.0856 40.8504 11.4438 40.5691 10.3757 40.5735C9.28564 40.5691 8.6483 40.8504 8.6527 41.3558Z" fill="#131313"/>
<path fill-rule="evenodd" clip-rule="evenodd" d="M10.7811 1.83534C12.6932 0.695062 14.9114 0.0408936 17.278 0.0408936C19.7867 0.0408936 22.1298 0.776502 24.1164 2.0466C25.9652 2.74227 27.9045 3.98358 29.6551 5.67901C29.6682 5.69175 29.6809 5.70491 29.6931 5.71846C31.753 7.7246 33.2088 10.0305 33.8767 12.1715C34.539 14.2945 34.4728 16.4484 33.1455 17.8727C32.1322 18.9606 30.6535 19.3224 29.0832 19.1859C27.0182 23.768 22.5339 26.9648 17.278 26.9648C12.0284 26.9648 7.52189 23.7549 5.4607 19.1581C3.79335 19.3583 2.21175 19.0184 1.14245 17.8715M28.5356 6.75948C26.9039 5.18845 25.1288 4.07584 23.4977 3.47539C23.4435 3.45542 23.3916 3.42947 23.3432 3.39802C21.5822 2.25557 19.5046 1.59577 17.278 1.59577C15.1723 1.59577 13.2014 2.18533 11.5039 3.215C11.4484 3.24869 11.3889 3.27528 11.3267 3.29416C9.54661 3.83492 7.54134 5.02614 5.71447 6.79587C3.7865 8.66422 2.47662 10.77 1.89521 12.6342C1.30389 14.5301 1.51049 15.9862 2.27964 16.8111L2.27968 16.8111C2.96827 17.5497 4.16912 17.8517 5.79043 17.5324C6.15875 17.4598 6.52631 17.6608 6.66396 18.0101C8.38041 22.3649 12.4974 25.4099 17.278 25.4099C22.0593 25.4099 26.1486 22.3865 27.875 18.0536C28.0101 17.7144 28.3632 17.5149 28.7235 17.5743C30.235 17.8232 31.3534 17.5155 32.0078 16.8128L32.008 16.8126C32.7774 15.987 32.9838 14.5304 32.3924 12.6346C31.8109 10.7704 30.5007 8.66496 28.5721 6.79728C28.5595 6.78505 28.5473 6.77245 28.5356 6.75948ZM10.7811 1.83534C8.752 2.47159 6.57522 3.79723 4.63261 5.67908L4.63251 5.67917C2.5525 7.69483 1.08283 10.0167 0.410848 12.1712C-0.251234 14.2941 -0.185063 16.4478 1.14242 17.8715" fill="#131313"/>
<g clip-path="url(#clip0_243_376)">
<path d="M20.1915 19C20.0253 19 19.8536 18.9888 19.6778 18.9633C18.6968 18.8228 17.9529 18.323 17.4555 17.86C16.9405 18.3055 16.1734 18.7924 15.1732 18.9441C13.5654 19.1868 12.3296 18.4013 11.8731 18.0516C11.5598 17.8089 11.4698 17.3156 11.6756 16.9452C11.8813 16.5748 12.3037 16.4726 12.6185 16.7137C12.9482 16.9659 13.8407 17.5343 14.9988 17.3587C16.0044 17.207 16.6843 16.5827 16.9991 16.2251C17.1312 16.0766 17.3043 15.9952 17.4896 16C17.6722 16.0048 17.8452 16.0942 17.9692 16.2507C18.2622 16.6131 18.8944 17.2421 19.8427 17.3778C21.2312 17.5774 22.2245 16.5396 22.4098 16.3289C22.6795 16.0223 23.1115 16.0303 23.3731 16.3464C23.6347 16.6626 23.6279 17.1687 23.3581 17.4752C23.1183 17.7483 21.9206 19 20.1915 19Z" fill="#19100B"/>
</g>
<defs>
<clipPath id="clip0_243_376">
<rect width="12" height="3" fill="white" transform="translate(11.5653 16)"/>
</clipPath>
</defs>
</svg>
