<svg width="32" height="43" viewBox="0 0 32 43" fill="none" xmlns="http://www.w3.org/2000/svg">
<path d="M28.8263 35.7123V36.5123H25.811V37.9276H28.5098V38.7012H25.811V40.3363C27.1121 40.3319 28.1054 40.2836 29.2483 40.099L29.345 40.8902C28.0922 41.088 26.9758 41.1275 25.5121 41.1275H24.844V35.7123H28.8263ZM30.0394 42.9736V35.0266H31.024V42.9736H30.0394Z" fill="#131313"/>
<path d="M23.1452 35.0266V42.9736H22.1782V35.0266H23.1452ZM16.974 40.9781V35.8002H17.941V40.1429C19.0531 40.1254 20.2398 40.0287 21.4662 39.7825L21.5892 40.6001C20.1915 40.8902 18.8948 40.9825 17.6597 40.9781H16.974Z" fill="#131313"/>
<path d="M15.8995 39.51V40.3012H14.1941V43H13.2183V40.3012H11.3634V43H10.3788V40.3012H8.63818V39.51H15.8995ZM9.52607 38.5869V35.431H15.0116V38.5869H9.52607ZM10.4843 37.8046H14.0358V36.2046H10.4843V37.8046Z" fill="#131313"/>
<path d="M4.8384 35.809C4.834 38.2045 4.12194 40.2704 1.27807 41.7341L0.741821 40.9869C2.06046 40.3056 2.88241 39.5144 3.35273 38.5694L0.91764 38.7979L0.776985 37.9628L3.65602 37.787C3.7659 37.4134 3.83184 37.0178 3.8626 36.6002H1.19016V35.809H4.8384ZM4.82082 38.9298V38.1298H6.45593V35.0266H7.43172V42.9736H6.45593V38.9298H4.82082Z" fill="#131313"/>
<path d="M26.1471 26.1874C26.039 26.1874 25.9308 26.1626 25.8322 26.1123C25.7915 26.0918 25.7353 26.0687 25.6756 26.0448C25.4792 25.9654 25.2343 25.8663 25.0284 25.6537C24.5066 25.1166 23.9823 24.5659 23.4744 24.0322C22.816 23.3397 22.135 22.6242 21.4541 21.9351C21.3788 21.8591 21.2006 21.7805 21.1011 21.7797C19.7011 21.76 18.2761 21.7609 16.8978 21.7617C16.1416 21.7617 15.3854 21.7626 14.63 21.76C12.5387 21.7532 11.2374 20.4536 11.2357 18.3693C11.2331 15.8589 11.2331 13.3134 11.2357 10.8039C11.2374 8.6598 12.5396 7.37812 14.7191 7.37556C16.6313 7.373 18.5435 7.373 20.4565 7.37385C21.5017 7.37385 22.546 7.37385 23.5912 7.37385C24.0204 7.37385 24.4495 7.37129 24.8787 7.36958C25.7595 7.36531 26.6714 7.36019 27.5704 7.37556C29.5336 7.40715 30.8574 8.71444 30.8652 10.6297C30.8773 13.4782 30.8773 16.0681 30.8652 18.546C30.8566 20.393 29.5397 21.7139 27.663 21.76C27.4657 21.7643 27.271 21.7652 27.0703 21.7643C27.0703 21.8676 27.0703 21.9701 27.0703 22.0717C27.072 23.0272 27.0746 23.9306 27.0582 24.8468C27.0582 24.8477 27.0582 24.8485 27.0582 24.8494C27.0539 25.1371 26.95 25.3745 26.867 25.5649C26.841 25.6247 26.8168 25.6802 26.8012 25.7254C26.7363 25.9133 26.5918 26.0636 26.4058 26.1379C26.3228 26.1712 26.2345 26.1874 26.1463 26.1874H26.1471ZM17.6903 20.3947C18.8238 20.3947 19.9789 20.3972 21.121 20.4135C21.5839 20.4194 22.1169 20.6474 22.4465 20.9813C23.1361 21.6798 23.8214 22.4004 24.485 23.0972C24.877 23.5096 25.2793 23.9323 25.6825 24.3507C25.6911 23.6053 25.6894 22.8581 25.6877 22.0743C25.6877 21.7464 25.6859 21.4142 25.6859 21.0778C25.6859 20.7004 25.9957 20.3947 26.3781 20.3947C26.5304 20.3947 26.6758 20.3947 26.8168 20.3964C27.1006 20.3981 27.3688 20.3998 27.6301 20.3938C28.7497 20.3665 29.4765 19.639 29.4817 18.5392C29.4938 16.0655 29.4938 13.48 29.4817 10.6348C29.4774 9.46842 28.7549 8.76055 27.5488 8.74177C26.6637 8.72725 25.7604 8.73152 24.8865 8.73579C24.164 8.73921 23.4407 8.74006 22.7182 8.74006C21.9646 8.74006 21.211 8.74006 20.4573 8.74006C18.5452 8.74006 16.6339 8.73921 14.7226 8.74177C13.3105 8.74348 12.6227 9.41804 12.6218 10.8047C12.6192 13.3134 12.6192 15.858 12.6218 18.3676C12.6235 19.6885 13.32 20.3887 14.6369 20.3938C15.3914 20.3964 16.145 20.3964 16.8995 20.3955C17.1625 20.3955 17.4264 20.3955 17.6921 20.3955L17.6903 20.3947Z" fill="#131313"/>
<path d="M7.68395 17.3948C7.09655 17.3948 6.58592 17.4055 6.07708 17.393C4.1899 17.3466 2.88565 16.045 2.87584 14.148C2.86066 10.7727 2.86244 7.39739 2.87584 4.02119C2.88387 2.0617 4.18722 0.75925 6.18688 0.72622C7.86159 0.698546 9.53719 0.724435 11.2128 0.724435C14.9577 0.724435 18.7026 0.720864 22.4484 0.72622C24.7167 0.728898 25.9826 1.99029 25.9844 4.24079C25.987 7.46881 25.9879 10.6959 25.9844 13.9239C25.9817 16.0959 24.7132 17.3841 22.5582 17.3912C19.8238 17.4001 17.0886 17.3778 14.3542 17.4171C13.9927 17.4225 13.5445 17.6215 13.2901 17.8804C11.7582 19.448 10.2781 21.0665 8.75786 22.6474C8.56325 22.8492 8.2392 22.9251 7.97585 23.0599C7.87765 22.776 7.70179 22.493 7.69643 22.2082C7.66876 20.6371 7.68395 19.065 7.68395 17.3939V17.3948Z" fill="white"/>
<path d="M7.9758 23.7758C7.88564 23.7758 7.79458 23.7589 7.70888 23.7241C7.51695 23.6473 7.36787 23.4902 7.30092 23.2947C7.2786 23.2313 7.24647 23.1563 7.21254 23.0777C7.11256 22.8465 6.98847 22.56 6.98222 22.2234C6.96169 21.0593 6.96437 19.914 6.96705 18.7008C6.96705 18.5053 6.96794 18.3089 6.96794 18.1116C6.65728 18.1134 6.35911 18.1134 6.05917 18.1063C3.77563 18.05 2.17234 16.4235 2.16074 14.1516C2.14645 10.9557 2.14645 7.64111 2.16074 4.01852C2.17056 1.66089 3.78367 0.0513426 6.17433 0.0129563C7.31074 -0.00579047 8.46322 -0.000434268 9.57821 0.00581466C11.1958 0.013849 12.8143 0.0111709 14.4327 0.0102782C17.06 0.0102782 19.7764 0.00849278 22.4492 0.0129563C25.1077 0.0165271 26.6958 1.59661 26.6985 4.24169C26.702 8.00444 26.702 11.0816 26.6985 13.9266C26.6949 16.4967 25.1095 18.0982 22.5608 18.1072C21.6288 18.1098 20.6968 18.1098 19.764 18.1089C17.9937 18.1089 16.1619 18.1072 14.364 18.1331C14.1944 18.1357 13.9248 18.2545 13.7998 18.383C12.9348 19.2686 12.068 20.1889 11.2306 21.079C10.5914 21.7574 9.93082 22.46 9.2729 23.1447C9.03544 23.3911 8.74442 23.5098 8.51142 23.6062C8.43286 23.6384 8.35877 23.6687 8.30164 23.6982C8.19987 23.7499 8.08828 23.7767 7.97669 23.7767L7.9758 23.7758ZM7.68389 16.6806C8.07847 16.6806 8.39806 17.0002 8.39806 17.3948C8.39806 17.8385 8.39716 18.2741 8.39627 18.7044C8.39359 19.8354 8.39091 20.9067 8.40698 21.9833C9.00509 21.3593 9.60677 20.7201 10.1906 20.0997C11.0333 19.2052 11.9037 18.2795 12.7794 17.3832C13.1696 16.985 13.798 16.7128 14.3435 16.7047C16.153 16.6788 17.9893 16.6797 19.7648 16.6806C20.695 16.6806 21.6252 16.6815 22.5554 16.6788C24.3034 16.6726 25.2675 15.6951 25.2702 13.9248C25.2737 11.0807 25.2737 8.00444 25.2702 4.24259C25.2684 2.38576 24.3194 1.44396 22.4474 1.44128C19.7756 1.43771 17.06 1.43771 14.4336 1.4386C12.8134 1.4386 11.1922 1.44217 9.57195 1.43325C8.465 1.42789 7.32056 1.42164 6.19843 1.44039C4.59514 1.46628 3.59619 2.45629 3.58995 4.02387C3.57566 7.642 3.57566 10.9521 3.58995 14.1445C3.59798 15.646 4.58085 16.6413 6.09488 16.6779C6.42786 16.686 6.76887 16.6842 7.13041 16.6815C7.30895 16.6806 7.49196 16.6797 7.68389 16.6797V16.6806Z" fill="#131313"/>
<path d="M9.34024 10.4847C10.0244 10.4921 10.6056 9.92882 10.622 9.24141C10.6385 8.55071 10.092 7.96937 9.40206 7.94388C8.68739 7.91757 8.07904 8.50219 8.08069 9.21345C8.08234 9.88853 8.66513 10.4773 9.34024 10.4838V10.4847Z" fill="#131313"/>
<path d="M20.7893 9.19928C20.7893 8.50533 20.2313 7.95049 19.526 7.94308C18.8281 7.9365 18.261 8.48722 18.2478 9.18529C18.2353 9.88089 18.7883 10.467 19.4746 10.4843C20.194 10.5032 20.7893 9.92123 20.7893 9.19846V9.19928Z" fill="#131313"/>
<path d="M14.4323 7.94385C13.7335 7.94549 13.1715 8.50019 13.164 9.19602C13.1565 9.90991 13.76 10.5032 14.4746 10.4843C15.161 10.4663 15.7114 9.88776 15.7056 9.18864C15.6982 8.49526 15.1328 7.94139 14.4331 7.94303L14.4323 7.94385Z" fill="#131313"/>
</svg>
