<svg width="29" height="43" viewBox="0 0 29 43" fill="none" xmlns="http://www.w3.org/2000/svg">
<path d="M17.267 40.6262V42.9382H11.7551V40.6262H17.267ZM10.9023 40.1603V39.3867H14.0319V38.9252C12.6517 38.8592 11.8781 38.4812 11.8781 37.8043C11.8781 37.0571 12.832 36.6791 14.5154 36.6791C16.2165 36.6791 17.1571 37.0571 17.1615 37.8043C17.1571 38.4812 16.3967 38.8592 15.0077 38.9252V39.3867H18.1461V40.1603H10.9023ZM11.2628 36.4329V35.6945H14.0319V35H15.0077V35.6945H17.7505V36.4329H11.2628ZM12.7221 42.1998H16.3176V41.3646H12.7221V42.1998ZM12.9243 37.8043C12.9243 38.1164 13.4649 38.2702 14.5154 38.2702C15.5835 38.2702 16.111 38.1164 16.1154 37.8043C16.111 37.4834 15.5835 37.3428 14.5154 37.3384C13.4649 37.3428 12.9243 37.4834 12.9243 37.8043Z" fill="#3561FF"/>
<path d="M14.1568 0C14.3837 0 14.6106 0 14.8375 0C15.2602 0.219761 15.7509 0.367196 16.0998 0.673192C20.0907 4.18102 24.056 7.71111 28.0356 11.2329C28.4412 11.5917 28.8383 11.9478 29 12.4847V13.0188C28.9745 13.0772 28.9433 13.1356 28.9234 13.1968C28.6965 13.87 28.1774 14.2539 27.4485 14.2706C27.1081 14.2789 26.7677 14.2706 26.4273 14.2706C26.1947 14.2706 25.9621 14.2706 25.7182 14.2706C25.7182 14.4625 25.7182 14.596 25.7182 14.7296C25.7182 17.7005 25.7182 20.6715 25.7182 23.6424C25.7182 24.9804 24.8389 25.9346 23.4888 25.9708C21.9599 26.0125 20.4254 26.0069 18.8965 25.9708C17.5549 25.9374 16.6812 24.9971 16.6812 23.6786C16.6812 21.6534 16.6812 19.6283 16.6812 17.6031C16.6812 17.4835 16.6812 17.3667 16.6812 17.2471H12.3188V17.6337C12.3188 19.6255 12.3188 21.6173 12.3188 23.609C12.3188 25.0194 11.3203 25.9986 9.8794 25.9986C9.28942 25.9986 8.69943 25.9791 8.10945 25.9819C7.32658 25.9819 6.54372 26.0041 5.76086 25.9986C4.18378 25.9902 3.27044 25.0861 3.27044 23.545C3.27044 20.5963 3.27044 17.6476 3.27044 14.699V14.2733C2.80526 14.2733 2.37696 14.2511 1.95149 14.2789C1.00411 14.3401 0.32052 14.0035 0 13.0883C0 12.8658 0 12.6432 0 12.4207C0.258118 12.0785 0.46518 11.6807 0.780027 11.3998C4.66031 7.93365 8.56045 4.4898 12.4464 1.03204C12.957 0.578611 13.4675 0.15578 14.1568 0Z" fill="#3561FF"/>
</svg>
