<svg width="26" height="43" viewBox="0 0 26 43" fill="none" xmlns="http://www.w3.org/2000/svg">
<path d="M24.8766 35.0266V42.9824H23.892V35.0266H24.8766ZM18.6877 41.1099V35.6771H19.6635V37.6639H21.5888V35.6771H22.5558V41.1099H18.6877ZM19.6635 40.31H21.5888V38.4287H19.6635V40.31Z" fill="#131313"/>
<path d="M17.6573 41.1979V41.9891H10.396V41.1979H13.508V39.3606H14.475V41.1979H17.6573ZM10.607 38.7452C12.2685 38.4771 13.4596 37.2859 13.464 36.0903V35.5101H14.5014V36.0903C14.5014 37.2903 15.7013 38.4771 17.376 38.7452L16.954 39.554C15.6134 39.299 14.5102 38.5298 13.9827 37.4881C13.4596 38.5254 12.3696 39.3034 11.0289 39.554L10.607 38.7452Z" fill="#131313"/>
<path d="M7.1215 35.0266V42.9736H6.18087V38.9562H5.30177V42.5692H4.38752V35.1761H5.30177V38.1562H6.18087V35.0266H7.1215ZM0.642578 40.9957V35.9409H1.62716V40.1341C2.31286 40.121 3.06009 40.0594 3.89522 39.8968L3.99192 40.7495C2.91943 40.9385 2.00957 40.9957 1.17003 40.9957H0.642578Z" fill="#131313"/>
<path d="M16.7233 1.23334C16.7233 1.09236 16.7233 0.954134 16.7233 0.815907C16.7251 0.351792 17.0675 0.00210402 17.5188 0.00301944C17.9719 0.00301944 18.3152 0.351792 18.317 0.814076C18.317 0.922095 18.3225 1.0292 18.3152 1.13722C18.3097 1.22327 18.3381 1.24981 18.426 1.2489C19.0475 1.24524 19.6691 1.24798 20.2898 1.24615C20.385 1.24615 20.5113 1.26904 20.5671 1.21869C20.6156 1.17475 20.59 1.04293 20.5863 0.949557C20.5754 0.684087 20.6175 0.437841 20.8143 0.239196C21.0422 0.00759651 21.38 -0.0628903 21.6894 0.0588597C21.9769 0.172371 22.1755 0.466219 22.1783 0.783867C22.1801 0.957796 22.1819 1.13081 22.1773 1.30474C22.1755 1.37614 22.1984 1.40726 22.2689 1.42832C23.3482 1.75329 24.1867 2.39774 24.7863 3.34794C25.2357 4.06105 25.4527 4.84739 25.4527 5.69048C25.4536 10.9184 25.4554 16.1463 25.4527 21.3752C25.4518 23.5218 23.977 25.3316 21.8862 25.7518C21.5851 25.8122 21.2738 25.8424 20.9662 25.8433C15.7557 25.8488 10.5443 25.8479 5.33373 25.847C3.28045 25.847 1.53293 24.505 0.998328 22.5213C0.903125 22.1679 0.857354 21.8063 0.856439 21.4402C0.856439 16.8192 0.856439 12.1991 0.856439 7.57807C0.856439 6.96382 0.850946 6.34958 0.857354 5.73534C0.874747 4.10133 1.56863 2.8289 2.93168 1.93088C3.56149 1.51528 4.26544 1.30199 5.01791 1.25714C5.1122 1.25164 5.13417 1.21869 5.13142 1.13172C5.12684 0.993497 5.12776 0.853439 5.13966 0.716127C5.17719 0.290459 5.52596 -0.00705011 5.96536 0.00301944C6.36448 0.0112582 6.69861 0.338976 6.72058 0.748166C6.7279 0.883647 6.72699 1.01913 6.72516 1.15369C6.72424 1.21777 6.74163 1.24798 6.81212 1.24707C7.50967 1.24524 8.20813 1.24524 8.90567 1.24707C8.97341 1.24707 8.99813 1.2251 8.9963 1.15644C8.99264 1.03835 8.99355 0.920264 8.9963 0.802175C9.00545 0.332568 9.34782 -0.00247305 9.81376 0.00301944C10.2504 0.0075965 10.5845 0.360031 10.5855 0.816822C10.5855 0.931249 10.5873 1.04568 10.5855 1.1601C10.5836 1.22052 10.6019 1.24707 10.6678 1.24707C11.3727 1.24524 12.0776 1.24524 12.7824 1.24707C12.8502 1.24707 12.8639 1.21594 12.863 1.15736C12.8603 1.04293 12.8621 0.928503 12.863 0.814076C12.8648 0.340807 13.2035 0.000273194 13.6677 0.00301944C14.1144 0.00576568 14.4494 0.353623 14.4503 0.816822C14.4503 0.931249 14.4531 1.04568 14.4503 1.1601C14.4485 1.22143 14.4677 1.24798 14.5327 1.24798C15.2412 1.24615 15.9489 1.24798 16.6574 1.24615C16.6775 1.24615 16.6968 1.23883 16.7251 1.23334H16.7233ZM13.155 8.01655C9.63434 8.01655 6.11457 8.01655 2.59389 8.01655C2.49564 8.01655 2.44651 8.06537 2.44651 8.16302C2.44651 12.579 2.44651 16.9949 2.44651 21.4109C2.44651 22.9689 3.72901 24.2487 5.28704 24.2487C10.5122 24.2487 15.7365 24.2487 20.9617 24.2487C21.0688 24.2487 21.1768 24.2441 21.2839 24.234C22.722 24.1049 23.858 22.8673 23.858 21.4255C23.859 17.0059 23.858 12.5863 23.858 8.16759C23.858 8.06751 23.8068 8.01746 23.7042 8.01746C20.1872 8.01746 16.6711 8.01746 13.1541 8.01746L13.155 8.01655ZM22.1792 3.08888C22.1792 3.16852 22.1792 3.22619 22.1792 3.28478C22.1709 3.74431 21.7718 4.10224 21.3159 4.05922C20.8976 4.01985 20.5937 3.68664 20.5882 3.26189C20.5863 3.12458 20.5882 2.98635 20.5882 2.84538H18.318C18.318 2.99459 18.3207 3.13648 18.318 3.27837C18.3097 3.68481 18.0122 4.00887 17.6039 4.05739C17.2195 4.10316 16.8515 3.85599 16.7553 3.47244C16.727 3.35984 16.7306 3.23901 16.7251 3.12183C16.7206 3.03029 16.7251 2.93784 16.7251 2.85545C16.7032 2.84538 16.7004 2.84263 16.6977 2.84263C15.9727 2.8408 15.2467 2.83989 14.5217 2.83714C14.4659 2.83714 14.4503 2.86369 14.4512 2.91403C14.4531 3.02846 14.4512 3.14289 14.4512 3.25731C14.4494 3.70678 14.108 4.05739 13.6667 4.06105C13.2228 4.06471 12.8749 3.72509 12.8639 3.27562C12.8612 3.1612 12.8603 3.04677 12.8639 2.93234C12.8667 2.86094 12.8438 2.83165 12.7696 2.83531C12.6689 2.83989 12.5682 2.83622 12.4675 2.83622C11.8771 2.83622 11.2876 2.83806 10.6971 2.83439C10.6102 2.83439 10.5809 2.86094 10.5864 2.94699C10.5928 3.05409 10.5891 3.16211 10.5873 3.27013C10.5827 3.70495 10.2495 4.04823 9.822 4.06105C9.3826 4.07386 9.02468 3.74798 8.99996 3.30583C8.99264 3.18134 8.99447 3.05592 8.99813 2.93143C9.00087 2.85911 8.97524 2.83531 8.90201 2.83531C8.20813 2.83714 7.51333 2.83714 6.81944 2.83531C6.74255 2.83531 6.72607 2.86643 6.72699 2.93509C6.72882 3.06691 6.73065 3.19873 6.72241 3.33055C6.69678 3.72875 6.36082 4.04915 5.9617 4.06105C5.49484 4.07478 5.14149 3.72418 5.13234 3.23534C5.12959 3.1081 5.13234 2.98086 5.13234 2.84538C5.07375 2.84812 5.02889 2.84904 4.98495 2.85362C3.76837 2.96987 2.69917 3.9512 2.5051 5.16321C2.44651 5.53029 2.46574 5.91018 2.452 6.28367C2.44743 6.42465 2.452 6.42465 2.59389 6.42465C9.63709 6.42465 16.6812 6.42465 23.7244 6.42465H23.8507C23.902 5.61634 23.8736 4.83732 23.4086 4.14069C23.101 3.68024 22.7037 3.32872 22.1828 3.08796L22.1792 3.08888Z" fill="#131313"/>
<path d="M17.2087 11.8247C17.2087 11.4915 17.2124 11.1583 17.2069 10.826C17.2051 10.7299 17.227 10.6951 17.3314 10.696C17.9941 10.7006 18.656 10.7006 19.3187 10.696C19.4158 10.696 19.4497 10.7171 19.4487 10.8205C19.4442 11.486 19.4442 12.1524 19.4487 12.8179C19.4487 12.9186 19.4149 12.9379 19.3242 12.9369C18.6615 12.9333 17.9996 12.9333 17.3369 12.9369C17.2389 12.9369 17.2051 12.915 17.2069 12.8124C17.2133 12.4829 17.2096 12.1533 17.2096 11.8238L17.2087 11.8247Z" fill="#131313"/>
<path d="M19.4449 16.3377C19.4449 16.6736 19.4422 17.0105 19.4467 17.3464C19.4477 17.4343 19.4202 17.4572 19.3341 17.4572C18.6613 17.4545 17.9885 17.4535 17.3157 17.4572C17.2278 17.4572 17.2058 17.4297 17.2058 17.3446C17.2086 16.6718 17.2086 15.999 17.2058 15.3261C17.2058 15.2392 17.2324 15.2154 17.3175 15.2154C17.9903 15.2181 18.6631 15.2181 19.336 15.2154C19.4239 15.2154 19.4477 15.2428 19.4458 15.328C19.4413 15.6639 19.444 16.0008 19.444 16.3367L19.4449 16.3377Z" fill="#131313"/>
<path d="M18.3263 21.9748C17.9867 21.9748 17.6461 21.9729 17.3065 21.9766C17.2296 21.9766 17.2058 21.9546 17.2058 21.8768C17.2086 21.1967 17.2086 20.5174 17.2058 19.8373C17.2058 19.7604 17.2278 19.7357 17.3056 19.7366C17.9857 19.7393 18.665 19.7393 19.3451 19.7366C19.422 19.7366 19.4458 19.7585 19.4458 19.8363C19.4431 20.5165 19.4431 21.1957 19.4458 21.8759C19.4458 21.9528 19.4239 21.9775 19.3451 21.9766C19.0055 21.9729 18.665 21.9748 18.3254 21.9748H18.3263Z" fill="#131313"/>
<path d="M6.87085 12.9259V10.7061H9.09164V12.9259H6.87085Z" fill="#131313"/>
<path d="M6.87354 15.2255H9.09158V17.4463H6.87354V15.2255Z" fill="#131313"/>
<path d="M9.08792 21.9693H6.87354V19.7448H9.08792V21.9693Z" fill="#131313"/>
<path d="M12.0347 20.8497C12.0347 20.5165 12.0366 20.1833 12.0329 19.8501C12.032 19.7686 12.0485 19.7348 12.14 19.7357C12.8128 19.7393 13.4866 19.7393 14.1594 19.7357C14.2464 19.7357 14.2711 19.7613 14.2711 19.8474C14.2683 20.5202 14.2683 21.1939 14.2711 21.8668C14.2711 21.9446 14.2537 21.9766 14.1676 21.9766C13.4912 21.9729 12.8147 21.9739 12.1373 21.9766C12.053 21.9766 12.032 21.9501 12.032 21.8695C12.0356 21.5299 12.0338 21.1894 12.0338 20.8488L12.0347 20.8497Z" fill="#131313"/>
<path d="M12.0438 10.706H14.271V10.825C14.271 11.4878 14.2691 12.1505 14.2728 12.8133C14.2728 12.9048 14.2536 12.9387 14.1529 12.9378C13.4828 12.9332 12.8136 12.9351 12.1435 12.936C12.0776 12.936 12.0337 12.936 12.0337 12.8453C12.0374 12.1551 12.0355 11.464 12.0355 10.7738C12.0355 10.7536 12.0401 10.7335 12.0438 10.7051V10.706Z" fill="#131313"/>
<path d="M12.0437 15.2254H14.27C14.27 15.2703 14.27 15.3069 14.27 15.3444C14.27 16.0072 14.2682 16.6699 14.2718 17.3327C14.2718 17.4251 14.2508 17.4581 14.1519 17.4572C13.4818 17.4526 12.8126 17.4544 12.1426 17.4553C12.0767 17.4553 12.0327 17.4526 12.0327 17.3638C12.0355 16.6736 12.0345 15.9825 12.0345 15.2922C12.0345 15.2721 12.0391 15.2519 12.0428 15.2245L12.0437 15.2254Z" fill="#131313"/>
</svg>
