<svg width="29" height="43" viewBox="0 0 29 43" fill="none" xmlns="http://www.w3.org/2000/svg">
<path d="M17.267 40.5649V42.8769H11.7551V40.5649H17.267ZM10.9023 40.099V39.3254H14.0319V38.8639C12.6517 38.7979 11.8781 38.4199 11.8781 37.743C11.8781 36.9958 12.832 36.6178 14.5154 36.6178C16.2165 36.6178 17.1571 36.9958 17.1615 37.743C17.1571 38.4199 16.3967 38.7979 15.0077 38.8639V39.3254H18.1461V40.099H10.9023ZM11.2628 36.3716V35.6332H14.0319V34.9387H15.0077V35.6332H17.7505V36.3716H11.2628ZM12.7221 42.1385H16.3176V41.3034H12.7221V42.1385ZM12.9243 37.743C12.9243 38.0551 13.4649 38.2089 14.5154 38.2089C15.5835 38.2089 16.111 38.0551 16.1154 37.743C16.111 37.4222 15.5835 37.2815 14.5154 37.2771C13.4649 37.2815 12.9243 37.4222 12.9243 37.743Z" fill="#131313"/>
<path d="M9.85536 26.1874C9.83973 26.1874 9.8241 26.1874 9.80847 26.1874C8.8298 26.1665 7.83029 26.1708 6.86291 26.1752C6.42524 26.1769 5.98758 26.1796 5.54991 26.1787C4.20825 26.1787 3.23393 25.1961 3.23393 23.8431C3.23393 20.6827 3.23393 17.5241 3.23566 14.3637H2.9187C2.46714 14.3637 2.01471 14.3637 1.56228 14.362C0.890154 14.362 0.346544 14.0045 0.111212 13.4065C-0.131067 12.7892 0.027847 12.1449 0.535852 11.6837C1.76549 10.5713 2.99425 9.45973 4.22302 8.34902C6.44174 6.34208 8.66047 4.33515 10.8801 2.32821C11.5157 1.75281 12.1531 1.17653 12.7896 0.602872C13.6797 -0.198333 14.9658 -0.200949 15.8481 0.595026C17.2141 1.82778 18.5783 3.06229 19.9425 4.29592L23.2572 7.29499C24.8611 8.7457 26.465 10.1973 28.0706 11.6463C28.7462 12.2548 28.6802 12.9235 28.5795 13.267C28.3832 13.94 27.8231 14.3594 27.1154 14.3611C26.6091 14.362 26.1029 14.3611 25.5966 14.3611H25.4099C25.4099 15.8502 25.4099 17.3393 25.4099 18.8275C25.4099 20.4874 25.4108 22.1482 25.4108 23.8082C25.4108 24.9852 24.7213 25.8744 23.6123 26.1307C23.4369 26.1717 23.2711 26.1769 23.146 26.1769C21.6889 26.1787 20.2308 26.1787 18.7728 26.1769C17.4676 26.1769 16.4829 25.1909 16.4829 23.8823C16.4829 22.3078 16.4829 20.7324 16.4829 19.1579V17.3305H12.1635C12.1635 17.8144 12.1627 18.2983 12.1618 18.783C12.1592 20.4351 12.1566 22.1439 12.1696 23.8221C12.1748 24.469 11.9299 25.0706 11.4801 25.5161C11.0485 25.9433 10.4589 26.1865 9.8545 26.1865L9.85536 26.1874ZM8.08473 24.6024C8.66828 24.6024 9.25705 24.6059 9.84147 24.619C10.0403 24.6233 10.2392 24.544 10.3825 24.401C10.4858 24.2982 10.6091 24.1168 10.6065 23.8361C10.5935 22.15 10.5961 20.4377 10.5987 18.7821C10.5996 18.1091 10.6004 17.436 10.6004 16.763V15.763H18.046V19.1596C18.046 20.7341 18.046 22.3087 18.046 23.884C18.046 24.3252 18.3317 24.6094 18.7737 24.6094C20.2308 24.6111 21.6889 24.6111 23.1451 24.6094C23.2276 24.6094 23.2545 24.605 23.2606 24.6033C23.5133 24.5449 23.8477 24.3993 23.8477 23.8099C23.8477 22.15 23.8477 20.4892 23.8468 18.8292C23.8468 17.1693 23.8468 15.5084 23.8468 13.8485V12.7927H25.5983C26.0664 12.7927 26.5344 12.7936 27.0025 12.7927C25.4038 11.3498 23.8068 9.90523 22.2108 8.46149L18.8961 5.46242C17.5328 4.22879 16.1685 2.99516 14.8034 1.7624C14.5169 1.50347 14.127 1.50695 13.8343 1.77112C13.1986 2.3439 12.5621 2.91931 11.9273 3.49384C9.70774 5.50078 7.48901 7.50771 5.27029 9.51465C4.0615 10.607 2.85357 11.6994 1.64565 12.7927C2.07203 12.7944 2.49667 12.7944 2.91957 12.7944H3.75148C3.84353 12.7613 3.93558 12.7465 4.01808 12.7465H4.02068C4.3333 12.7474 4.79962 12.9706 4.79962 13.5782V13.8424C4.79789 17.1762 4.79789 20.5092 4.79789 23.8431C4.79789 24.3226 5.07925 24.6094 5.55165 24.6094C5.98671 24.6094 6.42177 24.6077 6.85683 24.6059C7.2615 24.6042 7.67224 24.6024 8.0856 24.6024H8.08473Z" fill="#131313"/>
</svg>
