<svg width="12" height="10" viewBox="0 0 12 10" fill="none" xmlns="http://www.w3.org/2000/svg">
<path d="M9.15774 0C9.39057 0.0382831 9.63003 0.0560573 9.8555 0.117584C10.7382 0.358904 11.3011 0.926997 11.6511 1.69129C11.867 2.16163 11.9414 2.65931 11.9886 3.16861C12.0689 4.0416 11.7167 4.77991 11.2311 5.48337C10.5982 6.40148 9.78034 7.16919 8.91827 7.90067C8.04589 8.64104 7.11309 9.31099 6.1486 9.94471C6.0285 10.024 5.94377 10.0151 5.83399 9.93651C5.1878 9.47574 4.51952 9.03959 3.89249 8.55832C2.69296 7.63679 1.56343 6.64963 0.715365 5.42047C0.394853 4.95561 0.12076 4.4634 0.0360263 3.91308C-0.0162872 3.57263 -0.00523506 3.21783 0.0286582 2.87396C0.0743405 2.40636 0.193704 1.95175 0.425799 1.52517C0.902515 0.650812 1.62312 0.105962 2.70402 0.0266614C2.74822 0.0232433 2.79096 0.00957077 2.83443 0C2.8919 0 2.94864 0 3.00611 0C3.14095 0.0143561 3.27799 0.0184579 3.40988 0.0437521C4.27637 0.208506 4.97781 0.622783 5.512 1.2736C5.68957 1.4903 5.8362 1.72821 5.99609 1.95517C6.14934 1.73778 6.29302 1.5115 6.46101 1.30162C6.90384 0.748571 7.47192 0.345231 8.18883 0.147663C8.44745 0.0765661 8.71934 0.0485375 8.98532 0.000683626C9.0428 0.000683626 9.09953 0.000683626 9.157 0.000683626L9.15774 0Z" fill="#FF6161"/>
</svg>
