<svg width="14" height="12" viewBox="0 0 14 12" fill="none" xmlns="http://www.w3.org/2000/svg">
<path d="M10.1577 1C10.3906 1.03828 10.63 1.05606 10.8555 1.11758C11.7382 1.3589 12.3011 1.927 12.6511 2.69129C12.867 3.16163 12.9414 3.65931 12.9886 4.16861C13.0689 5.0416 12.7167 5.77991 12.2311 6.48337C11.5982 7.40148 10.7803 8.16919 9.91827 8.90067C9.04589 9.64103 8.11309 10.311 7.14861 10.9447C7.0285 11.024 6.94377 11.0151 6.83399 10.9365C6.1878 10.4757 5.51952 10.0396 4.89249 9.55832C3.69296 8.63679 2.56343 7.64963 1.71537 6.42047C1.39485 5.95561 1.12076 5.4634 1.03603 4.91308C0.983713 4.57263 0.994765 4.21783 1.02866 3.87396C1.07434 3.40636 1.1937 2.95175 1.4258 2.52517C1.90252 1.65081 2.62312 1.10596 3.70402 1.02666C3.74823 1.02324 3.79096 1.00957 3.83443 1C3.8919 1 3.94864 1 4.00611 1C4.14095 1.01436 4.27799 1.01846 4.40988 1.04375C5.27637 1.20851 5.97781 1.62278 6.512 2.2736C6.68957 2.4903 6.8362 2.72821 6.99609 2.95517C7.14934 2.73778 7.29302 2.5115 7.46101 2.30162C7.90384 1.74857 8.47192 1.34523 9.18883 1.14766C9.44745 1.07657 9.71934 1.04854 9.98532 1.00068C10.0428 1.00068 10.0995 1.00068 10.157 1.00068L10.1577 1Z" stroke="#FF6161" stroke-linecap="round" stroke-linejoin="round"/>
</svg>
