<svg width="69" height="69" viewBox="0 0 69 69" fill="none" xmlns="http://www.w3.org/2000/svg">
<rect width="69" height="69" rx="29" fill="#FFF1A7"/>
<rect width="69" height="69" rx="29" fill="#FFF1A7"/>
<path d="M18.9829 53.6383C20.0937 52.1997 22.1345 49.9629 25.3496 48.2535C26.2397 47.7803 29.7271 46.0144 34.5673 45.9485C38.1887 45.899 40.8354 46.8267 41.4624 47.0574C43.6159 47.8438 45.065 48.8374 46.2368 49.6497C47.8667 50.7823 50.1705 52.6517 52.4039 55.5666C51.5185 55.8703 50.1705 56.2588 48.4914 56.4307C46.4224 56.6426 45.1425 56.3977 43.2519 56.2988C40.6757 56.1623 40.1731 56.4707 36.8195 56.6308C32.5406 56.838 27.7732 57.024 22.6301 55.2346C21.0331 54.6789 19.7814 54.0644 18.9829 53.6383Z" fill="#8D6330"/>
<path d="M44.1962 21.2703C40.3652 25.1594 38.0371 29.0867 36.6686 31.8704C35.7883 29.9372 35.3666 27.9106 35.3552 25.9265C35.1104 24.3046 34.3235 20.9462 31.5185 18.1002C26.3643 12.8709 19.0362 14.0824 18.3342 14.2111C18.3286 14.231 18.3186 14.2748 18.3059 14.3371C19.8881 17.1407 22.0902 20.4721 25.1273 23.8843C28.3739 27.5327 31.6332 30.216 34.3264 32.1323C34.3901 32.1238 34.441 32.1181 34.4792 32.1124C34.4523 37.4988 34.4254 42.8852 34.4 48.2716C34.516 48.3735 34.8415 48.6339 35.3326 48.682C35.9978 48.7471 36.4662 48.3777 36.5596 48.3013C36.5964 42.8244 36.6332 37.3474 36.67 31.8704C42.0026 32.67 47.2871 30.5642 50.3327 26.3892C53.9812 21.3878 52.7372 15.724 52.5079 14.7857C50.0822 16.2165 47.1286 18.2969 44.1976 21.2717L44.1962 21.2703Z" fill="#B3D100"/>
<path d="M25.1272 23.8843C22.0901 20.4721 19.888 17.1407 18.3057 14.3371C18.0708 15.4367 16.7603 22.8285 22.2231 28.1696C26.9514 32.7932 33.0751 32.2865 34.3248 32.1323C31.633 30.216 28.3737 27.5313 25.1258 23.8843L25.1272 23.8843Z" fill="#6F9E0B"/>
<path d="M36.6684 31.8705C38.0383 29.0881 40.3649 25.1594 44.196 21.2703C47.1269 18.2955 50.0819 16.2151 52.5062 14.7843C52.5034 14.7744 52.5006 14.7603 52.4978 14.7518C47.7567 13.1794 42.6449 14.1928 39.2455 17.4351C35.6777 20.8373 35.4399 25.3193 35.4116 26.3397C35.4173 27.0629 35.4838 27.9389 35.6862 28.9169C35.9353 30.1212 36.3145 31.1161 36.6684 31.8705Z" fill="#6F9E0B"/>
<circle cx="63.5" cy="61.5" r="2" stroke="white"/>
</svg>
