<svg width="21" height="19" viewBox="0 0 21 19" fill="none" xmlns="http://www.w3.org/2000/svg">
<g clip-path="url(#clip0_1_12)">
<path d="M2.2149 18.8733C2.68892 18.2721 3.21215 17.7026 3.62303 17.0623C4.0275 16.4315 4.31854 15.7288 4.66629 15.0441C4.11203 14.6722 3.61661 14.3668 3.15116 14.0234C0.478278 12.0539 -0.646302 8.83654 0.370207 6.05871C1.17057 3.86941 2.72744 2.31513 4.81503 1.36312C9.31441 -0.688817 13.7047 -0.478552 17.8178 2.37324C20.5024 4.23394 21.6313 7.48725 20.6512 10.2693C19.8572 12.5241 18.2287 14.0393 16.1154 15.0885C13.8876 16.1948 11.5165 16.5044 9.05226 16.2994C8.77941 16.2761 8.44878 16.3417 8.22087 16.4843C6.58268 17.4997 4.82359 18.2457 2.99815 18.8522C2.77024 18.9282 2.52521 18.9525 2.28766 19.0001C2.26412 18.9578 2.23951 18.9156 2.21597 18.8733H2.2149Z" fill="#191600"/>
</g>
<defs>
<clipPath id="clip0_1_12">
<rect width="21" height="19" fill="white"/>
</clipPath>
</defs>
</svg>
