<svg width="94" height="56" viewBox="0 0 94 56" fill="none" xmlns="http://www.w3.org/2000/svg">
<path d="M28.9306 23.4554L27.2252 15.6018C24.3319 16.428 21.3884 17.0484 17.5131 17.0484C12.3996 17.0484 10.5385 16.2221 10.5385 13.7433C10.5385 12.1936 11.106 10.747 12.0379 9.50624H26.8636V1.03482H0V9.50624H2.22279C1.085 11.0057 0.208552 13.6403 0.208552 16.1192C0.208552 22.938 5.89224 25.3139 17.2042 25.3139C21.3383 25.3139 26.2458 24.4876 28.9306 23.4554Z" fill="#3561FF"/>
<path d="M30.4802 26.9164H14.1551C6.35423 26.9164 2.27295 30.1713 2.27295 36.3698C2.27295 42.5683 6.35423 45.8233 14.1551 45.8233H30.4802C38.2811 45.8233 42.3624 42.5683 42.3624 36.3698C42.3624 30.1713 38.2811 26.9164 30.4802 26.9164ZM29.3952 37.7637H15.2401C13.5347 37.7637 12.6055 37.2991 12.6055 36.2669C12.6055 35.2347 13.5347 34.77 15.2401 34.77H29.3952C31.1006 34.77 32.0298 35.2347 32.0298 36.2669C32.0298 37.2991 31.1006 37.7637 29.3952 37.7637Z" fill="#3561FF"/>
<path d="M59.8596 43.5107V38.0276H49.527V45.2979C49.527 52.2224 54.5904 55.8575 69.6219 55.8575C76.8024 55.8575 84.0859 54.9335 89.202 53.8961V44.374C83.8298 45.6437 77.8874 46.3354 69.6219 46.3354C61.3564 46.3354 59.8569 45.4114 59.8569 43.5081L59.8596 43.5107Z" fill="#3561FF"/>
<path d="M88.9459 14.2528V4.67261H78.6134V39.1259H88.9459V23.9491H93.5948V14.2528H88.9459Z" fill="#3561FF"/>
<path d="M45.3956 26.6022V36.9902C52.526 36.6444 57.9483 33.817 61.2561 29.5457C64.2524 33.1227 68.0248 35.4326 73.191 36.7579L77.1166 27.9855C72.2592 27.0615 66.7339 23.8303 65.0786 20.021C65.1314 19.2712 65.1816 18.5215 65.1816 17.7137V16.2142H73.7058V7.55802H65.1816V3.22859H54.8491V7.55802C50.6015 7.55274 46.3512 7.54746 42.1037 7.54218V0H31.7711V25.5726H42.1037V16.2221C46.3512 16.2221 50.6015 16.2169 54.8491 16.2142V19.0996C54.8491 23.7168 50.612 26.0241 45.3956 26.6022Z" fill="#3561FF"/>
</svg>
