<svg width="15" height="18" viewBox="0 0 15 18" fill="none" xmlns="http://www.w3.org/2000/svg">
<g clip-path="url(#clip0_52_77)">
<path d="M7.49896 17.8485C5.20342 17.8485 2.90829 17.8485 0.612746 17.8485C0.130587 17.8485 -0.00663994 17.707 0.000407956 17.1906C0.0107725 16.4372 -0.0174191 15.6784 0.055962 14.9316C0.279007 12.6597 2.04762 10.668 4.15535 10.2717C4.47956 10.2108 4.81164 10.1739 5.1404 10.1721C6.75312 10.1632 8.36668 10.1436 9.97899 10.177C12.743 10.2344 14.9308 12.6032 14.9934 15.5699C15.005 16.1241 14.9979 16.6791 14.9975 17.2338C14.9975 17.6901 14.8503 17.8485 14.4262 17.8485C12.117 17.8489 9.80777 17.8485 7.49854 17.8485H7.49896Z" fill="#B1B5B8"/>
<path d="M7.48693 8.52187C5.28135 8.51342 3.51482 6.59911 3.52642 4.2298C3.53762 1.89607 5.33359 -0.0111167 7.50932 2.5994e-06C9.71116 0.0111219 11.4831 1.93432 11.4698 4.2983C11.4566 6.63914 9.67302 8.53032 7.48693 8.52187Z" fill="#B1B5B8"/>
</g>
<defs>
<clipPath id="clip0_52_77">
<rect width="15" height="18" fill="white"/>
</clipPath>
</defs>
</svg>
