<svg width="20" height="11" viewBox="0 0 20 11" fill="none" xmlns="http://www.w3.org/2000/svg">
<path d="M17.6584 8.70236C17.6773 8.55318 17.7113 8.40427 17.7122 8.2546C17.7149 7.75193 17.7058 7.24923 17.7011 6.7294C18.0679 6.73102 18.4216 6.73351 18.7753 6.7342C19.2221 6.73535 19.3979 6.55795 19.3941 6.11094C19.3891 5.55956 19.3843 5.0084 19.3791 4.4568C19.3751 4.04044 19.1894 3.85603 18.7708 3.85518C15.9717 3.84864 13.1723 3.84144 10.3732 3.84077C10.2248 3.84084 10.1667 3.79695 10.1202 3.6573C9.33467 1.31005 6.9473 -0.169187 4.50975 0.174608C2.33448 0.481434 0.617626 2.09347 0.219048 4.2517C-0.0596391 5.76015 0.27691 7.15025 1.22491 8.37805C2.64441 10.2159 5.09734 10.8962 7.23165 10.0255C8.68229 9.43349 9.66228 8.37295 10.1566 6.87904C10.2018 6.7421 10.259 6.70776 10.3969 6.70857C11.8125 6.71785 13.2281 6.71969 14.6436 6.72266C14.6964 6.72279 14.7493 6.71414 14.8137 6.70844C14.8177 6.77856 14.8227 6.82861 14.8231 6.87911C14.8281 7.35633 14.8318 7.83354 14.8366 8.31053C14.8409 8.73929 15.0245 8.92347 15.4478 8.92456C15.9781 8.92593 16.5083 8.93225 17.0382 8.92483C17.1935 8.92275 17.3478 8.88212 17.5027 8.85907L17.6588 8.70191L17.6584 8.70236ZM7.07993 7.06903C6.08646 8.05898 4.47641 8.05168 3.4775 7.0521C2.47836 6.05228 2.4663 4.4252 3.45133 3.4474C4.44707 2.45881 6.05352 2.46746 7.05379 3.46705C8.05473 4.46731 8.06648 6.08561 7.07948 7.06903L7.07993 7.06903Z" fill="#B1B5B8"/>
</svg>
