<svg width="19" height="19" viewBox="0 0 19 19" fill="none" xmlns="http://www.w3.org/2000/svg">
<path d="M6.47848 18H1C1 12.3351 1 6.66989 1 1.005C2.65439 1.005 4.30911 1.00866 5.9635 1.00001C6.15679 0.999015 6.26657 1.05522 6.37702 1.21486C8.38038 4.11831 10.3904 7.01711 12.3994 9.9169C12.4307 9.9618 12.465 10.0047 12.4979 10.0483C12.5099 10.0426 12.5222 10.037 12.5342 10.0313V1.01531H18V18H12.7541C12.7344 17.9614 12.7191 17.9202 12.6948 17.8853C10.6579 14.9442 8.62024 12.0035 6.58228 9.06349C6.55699 9.02691 6.52572 8.99465 6.47516 8.93345V9.17092C6.47516 11.2456 6.47482 13.3202 6.47516 15.3945C6.47516 16.2629 6.47749 17.1316 6.47848 18Z" fill="white"/>
</svg>
