<svg width="24" height="27" viewBox="0 0 24 27" fill="none" xmlns="http://www.w3.org/2000/svg">
<path d="M2.5 25.5L1.5 24.5V26L2.5 25.5Z" stroke="#3561FF"/>
<path d="M0.542437 27C0.41406 27 0.2893 26.9543 0.188045 26.8667C0.0669006 26.7608 0 26.6092 0 26.4522C0 26.4211 0.00361625 26.3883 0.00904062 26.3554L1.47181 18.0685C1.50617 17.8731 1.64178 17.7124 1.82801 17.6467C2.01425 17.5828 2.21857 17.6229 2.36683 17.7544L8.6573 23.3953C8.77483 23.5012 8.83992 23.6509 8.83992 23.8043C8.83992 23.8408 8.8363 23.8774 8.82907 23.9139C8.7911 24.1056 8.65368 24.2608 8.47106 24.3247L0.717825 26.9708C0.661774 26.9909 0.602105 27 0.544245 27H0.542437ZM2.37045 19.2244L1.23857 25.6377L7.23792 23.5888L2.37045 19.2244Z" fill="#3561FF"/>
<path d="M8.4259 24.3047C8.29391 24.3047 8.16553 24.2554 8.06608 24.1677L1.69787 18.4885C1.47547 18.2913 1.45197 17.948 1.64544 17.7215L15.9495 0.846475C16.3708 0.349773 16.9548 0.0521175 17.5967 0.00646479C18.2368 -0.041014 18.8552 0.174467 19.3379 0.605429L22.9054 3.78651C23.898 4.67217 24.0047 6.22071 23.1404 7.23786L8.83454 24.1129C8.74052 24.2243 8.60491 24.2937 8.46026 24.3028C8.4476 24.3028 8.43494 24.3028 8.42229 24.3028L8.4259 24.3047ZM2.81529 18.0247L8.37166 22.9789L22.3195 6.52385C22.7987 5.95775 22.7408 5.09766 22.1893 4.60643L18.6219 1.42535C18.3579 1.18978 18.0198 1.07474 17.6745 1.09848C17.3255 1.12222 17.0055 1.28657 16.7758 1.55866L2.81529 18.0247Z" fill="#3561FF"/>
<path d="M21.1876 9.25022C21.0592 9.25022 20.9326 9.20457 20.8296 9.11327L14.7326 3.68607C14.5084 3.48703 14.4867 3.14006 14.6838 2.91363C14.8826 2.68719 15.2244 2.66528 15.4486 2.86432L21.5456 8.29152C21.7698 8.49056 21.7915 8.83752 21.5944 9.06396C21.4877 9.18631 21.3377 9.25022 21.1876 9.25022Z" fill="#3561FF"/>
<rect x="15.3423" y="3.25446" width="8.02762" height="19.8355" transform="rotate(40.8848 15.3423 3.25446)" fill="#3561FF"/>
</svg>
